General
Unique ID                                : 82394671671132840951587588734573532832 (0x3DFCA2F47A614282C21CE32973C2D6A0)
Complete name                            : CHANMINA - Rainy Friday [WEB-DL 1080p AAC 2.0 x264-SEKAI].mkv
Format                                   : Matroska
Format version                           : Version 4
File size                                : 204 MiB
Duration                                 : 2 min 46 s
Overall bit rate                         : 10.3 Mb/s
Frame rate                               : 23.976 FPS
Title                                    : CHANMINA - Rainy Friday [WEB-DL 1080p AAC 2.0 x264-SEKAI]
Encoded date                             : 2026-05-03 01:47:28 UTC
Writing application                      : mkvmerge 98.0 ('Chonks') 64-bit
Writing library                          : libebml v1.4.5 + libmatroska v1.7.1
Website                                  : https://sekai-archivist.blogspot.com/

Video
ID                                       : 1
Format                                   : AVC
Format/Info                              : Advanced Video Codec
Format profile                           : High@L4
Format settings                          : CABAC / 5 Ref Frames
Format settings, CABAC                   : Yes
Format settings, Reference frames        : 5 frames
Format settings, Slice count             : 8 slices per frame
Codec ID                                 : V_MPEG4/ISO/AVC
Duration                                 : 2 min 46 s
Bit rate                                 : 10.1 Mb/s
Width                                    : 1 920 pixels
Height                                   : 780 pixels
Display aspect ratio                     : 2.462
Frame rate mode                          : Constant
Frame rate                               : 23.976 (24000/1001) FPS
Color space                              : YUV
Chroma subsampling                       : 4:2:0 (Type 2)
Bit depth                                : 8 bits
Scan type                                : Progressive
Bits/(Pixel*Frame)                       : 0.280
Stream size                              : 199 MiB (97%)
Language                                 : Japanese
Default                                  : Yes
Forced                                   : No
Color range                              : Limited
Color primaries                          : BT.709
Transfer characteristics                 : BT.709
Matrix coefficients                      : BT.709

Audio
ID                                       : 2
Format                                   : AAC LC
Format/Info                              : Advanced Audio Codec Low Complexity
Codec ID                                 : A_AAC-2
Duration                                 : 2 min 46 s
Bit rate                                 : 255 kb/s
Channel(s)                               : 2 channels
Channel layout                           : L R
Sampling rate                            : 48.0 kHz
Frame rate                               : 46.875 FPS (1024 SPF)
Compression mode                         : Lossy
Stream size                              : 5.05 MiB (2%)
Language                                 : Japanese
Default                                  : Yes
Forced                                   : No


